<svg width="338" height="166" viewBox="0 0 338 166" fill="none" xmlns="http://www.w3.org/2000/svg">
<g filter="url(#filter0_d)">
<ellipse cx="169" cy="88" rx="165" ry="70" fill="#14BC25"/>
</g>
<g filter="url(#filter1_d)">
<ellipse cx="169" cy="88" rx="150" ry="60" fill="#C4C4C4"/>
</g>
<g filter="url(#filter2_d)">
<path d="M93.4531 88C92.5469 89.0781 91.4609 89.9453 90.1953 90.6016C88.9453 91.2578 87.5703 91.5859 86.0703 91.5859C84.1016 91.5859 82.3828 91.1016 80.9141 90.1328C79.4609 89.1641 78.3359 87.8047 77.5391 86.0547C76.7422 84.2891 76.3438 82.3438 76.3438 80.2188C76.3438 77.9375 76.7734 75.8828 77.6328 74.0547C78.5078 72.2266 79.7422 70.8281 81.3359 69.8594C82.9297 68.8906 84.7891 68.4062 86.9141 68.4062C90.2891 68.4062 92.9453 69.6719 94.8828 72.2031C96.8359 74.7188 97.8125 78.1562 97.8125 82.5156V83.7812C97.8125 90.4219 96.5 95.2734 93.875 98.3359C91.25 101.383 87.2891 102.945 81.9922 103.023H81.1484V99.3672H82.0625C85.6406 99.3047 88.3906 98.375 90.3125 96.5781C92.2344 94.7656 93.2812 91.9062 93.4531 88ZM86.7734 88C88.2266 88 89.5625 87.5547 90.7812 86.6641C92.0156 85.7734 92.9141 84.6719 93.4766 83.3594V81.625C93.4766 78.7812 92.8594 76.4688 91.625 74.6875C90.3906 72.9062 88.8281 72.0156 86.9375 72.0156C85.0312 72.0156 83.5 72.75 82.3438 74.2188C81.1875 75.6719 80.6094 77.5938 80.6094 79.9844C80.6094 82.3125 81.1641 84.2344 82.2734 85.75C83.3984 87.25 84.8984 88 86.7734 88ZM104.094 100.727C104.094 99.9766 104.312 99.3516 104.75 98.8516C105.203 98.3516 105.875 98.1016 106.766 98.1016C107.656 98.1016 108.328 98.3516 108.781 98.8516C109.25 99.3516 109.484 99.9766 109.484 100.727C109.484 101.445 109.25 102.047 108.781 102.531C108.328 103.016 107.656 103.258 106.766 103.258C105.875 103.258 105.203 103.016 104.75 102.531C104.312 102.047 104.094 101.445 104.094 100.727ZM104.117 80.0312C104.117 79.2812 104.336 78.6562 104.773 78.1562C105.227 77.6562 105.898 77.4062 106.789 77.4062C107.68 77.4062 108.352 77.6562 108.805 78.1562C109.273 78.6562 109.508 79.2812 109.508 80.0312C109.508 80.75 109.273 81.3516 108.805 81.8359C108.352 82.3203 107.68 82.5625 106.789 82.5625C105.898 82.5625 105.227 82.3203 104.773 81.8359C104.336 81.3516 104.117 80.75 104.117 80.0312ZM136.812 88.4453C136.812 93.5234 135.945 97.2969 134.211 99.7656C132.477 102.234 129.766 103.469 126.078 103.469C122.438 103.469 119.742 102.266 117.992 99.8594C116.242 97.4375 115.336 93.8281 115.273 89.0312V83.2422C115.273 78.2266 116.141 74.5 117.875 72.0625C119.609 69.625 122.328 68.4062 126.031 68.4062C129.703 68.4062 132.406 69.5859 134.141 71.9453C135.875 74.2891 136.766 77.9141 136.812 82.8203V88.4453ZM132.477 82.5156C132.477 78.8438 131.961 76.1719 130.93 74.5C129.898 72.8125 128.266 71.9688 126.031 71.9688C123.812 71.9688 122.195 72.8047 121.18 74.4766C120.164 76.1484 119.641 78.7188 119.609 82.1875V89.125C119.609 92.8125 120.141 95.5391 121.203 97.3047C122.281 99.0547 123.906 99.9297 126.078 99.9297C128.219 99.9297 129.805 99.1016 130.836 97.4453C131.883 95.7891 132.43 93.1797 132.477 89.6172V82.5156ZM163.766 88.4453C163.766 93.5234 162.898 97.2969 161.164 99.7656C159.43 102.234 156.719 103.469 153.031 103.469C149.391 103.469 146.695 102.266 144.945 99.8594C143.195 97.4375 142.289 93.8281 142.227 89.0312V83.2422C142.227 78.2266 143.094 74.5 144.828 72.0625C146.562 69.625 149.281 68.4062 152.984 68.4062C156.656 68.4062 159.359 69.5859 161.094 71.9453C162.828 74.2891 163.719 77.9141 163.766 82.8203V88.4453ZM159.43 82.5156C159.43 78.8438 158.914 76.1719 157.883 74.5C156.852 72.8125 155.219 71.9688 152.984 71.9688C150.766 71.9688 149.148 72.8047 148.133 74.4766C147.117 76.1484 146.594 78.7188 146.562 82.1875V89.125C146.562 92.8125 147.094 95.5391 148.156 97.3047C149.234 99.0547 150.859 99.9297 153.031 99.9297C155.172 99.9297 156.758 99.1016 157.789 97.4453C158.836 95.7891 159.383 93.1797 159.43 89.6172V82.5156ZM203.094 90.6016C203.094 94.4609 202.211 97.5703 200.445 99.9297C198.68 102.289 196.289 103.469 193.273 103.469C190.195 103.469 187.773 102.492 186.008 100.539V112.75H181.672V77.6406H185.633L185.844 80.4531C187.609 78.2656 190.062 77.1719 193.203 77.1719C196.25 77.1719 198.656 78.3203 200.422 80.6172C202.203 82.9141 203.094 86.1094 203.094 90.2031V90.6016ZM198.758 90.1094C198.758 87.25 198.148 84.9922 196.93 83.3359C195.711 81.6797 194.039 80.8516 191.914 80.8516C189.289 80.8516 187.32 82.0156 186.008 84.3438V96.4609C187.305 98.7734 189.289 99.9297 191.961 99.9297C194.039 99.9297 195.688 99.1094 196.906 97.4688C198.141 95.8125 198.758 93.3594 198.758 90.1094ZM208.719 100.727C208.719 99.9766 208.938 99.3516 209.375 98.8516C209.828 98.3516 210.5 98.1016 211.391 98.1016C212.281 98.1016 212.953 98.3516 213.406 98.8516C213.875 99.3516 214.109 99.9766 214.109 100.727C214.109 101.445 213.875 102.047 213.406 102.531C212.953 103.016 212.281 103.258 211.391 103.258C210.5 103.258 209.828 103.016 209.375 102.531C208.938 102.047 208.719 101.445 208.719 100.727ZM225.359 77.6406L225.477 80.4531C227.336 78.2656 229.844 77.1719 233 77.1719C236.547 77.1719 238.961 78.5312 240.242 81.25C241.086 80.0312 242.18 79.0469 243.523 78.2969C244.883 77.5469 246.484 77.1719 248.328 77.1719C253.891 77.1719 256.719 80.1172 256.812 86.0078V103H252.477V86.2656C252.477 84.4531 252.062 83.1016 251.234 82.2109C250.406 81.3047 249.016 80.8516 247.062 80.8516C245.453 80.8516 244.117 81.3359 243.055 82.3047C241.992 83.2578 241.375 84.5469 241.203 86.1719V103H236.844V86.3828C236.844 82.6953 235.039 80.8516 231.43 80.8516C228.586 80.8516 226.641 82.0625 225.594 84.4844V103H221.258V77.6406H225.359ZM263.469 100.727C263.469 99.9766 263.688 99.3516 264.125 98.8516C264.578 98.3516 265.25 98.1016 266.141 98.1016C267.031 98.1016 267.703 98.3516 268.156 98.8516C268.625 99.3516 268.859 99.9766 268.859 100.727C268.859 101.445 268.625 102.047 268.156 102.531C267.703 103.016 267.031 103.258 266.141 103.258C265.25 103.258 264.578 103.016 264.125 102.531C263.688 102.047 263.469 101.445 263.469 100.727Z" fill="black"/>
</g>
<path d="M149.883 53.9219C149.148 53.9219 148.461 53.7266 147.82 53.3359C147.195 52.9453 146.641 52.3828 146.156 51.6484C145.672 50.9141 145.289 50.0234 145.008 48.9766C144.742 47.9141 144.609 46.7188 144.609 45.3906C144.609 44.0625 144.789 42.8281 145.148 41.6875C145.508 40.5469 145.984 39.5547 146.578 38.7109C147.172 37.8672 147.859 37.2109 148.641 36.7422C149.438 36.2578 150.258 36.0156 151.102 36.0156C151.961 36.0156 152.664 36.1328 153.211 36.3672C153.758 36.6016 154.188 36.9219 154.5 37.3281C154.812 37.7188 155.023 38.1797 155.133 38.7109C155.242 39.2422 155.281 39.7969 155.25 40.375C155.234 40.75 155.156 41.1328 155.016 41.5234C154.875 41.8984 154.703 42.2344 154.5 42.5312C154.297 42.8281 154.078 43.0547 153.844 43.2109C153.609 43.3672 153.383 43.3984 153.164 43.3047C152.992 43.2578 152.805 43.2031 152.602 43.1406C152.227 43.0156 151.781 42.8359 151.266 42.6016C151.578 42.3828 151.867 42.1328 152.133 41.8516C152.352 41.6016 152.547 41.2969 152.719 40.9375C152.906 40.5781 153 40.1641 153 39.6953C153 39.2891 152.945 38.9453 152.836 38.6641C152.742 38.3672 152.609 38.1328 152.438 37.9609C152.281 37.7734 152.102 37.6406 151.898 37.5625C151.695 37.4688 151.492 37.4219 151.289 37.4219C150.773 37.4219 150.258 37.625 149.742 38.0312C149.242 38.4375 148.789 39.0078 148.383 39.7422C147.992 40.4609 147.672 41.3203 147.422 42.3203C147.172 43.3203 147.047 44.4062 147.047 45.5781C147.047 46.5 147.133 47.3594 147.305 48.1562C147.492 48.9375 147.734 49.6172 148.031 50.1953C148.328 50.7578 148.672 51.2031 149.062 51.5312C149.469 51.8438 149.898 52 150.352 52C150.695 52 151.023 51.9062 151.336 51.7188C151.648 51.5312 151.914 51.2734 152.133 50.9453C152.352 50.6172 152.523 50.2188 152.648 49.75C152.789 49.2812 152.859 48.7656 152.859 48.2031C152.859 47.6875 152.844 47.2891 152.812 47.0078C152.797 46.7109 152.773 46.4922 152.742 46.3516C152.727 46.1953 152.703 46.1016 152.672 46.0703C152.656 46.0391 152.648 46.0234 152.648 46.0234C152.664 46.0234 152.789 46.0312 153.023 46.0469C153.258 46.0625 153.516 46.1016 153.797 46.1641C154.094 46.2109 154.367 46.2969 154.617 46.4219C154.867 46.5312 155.031 46.6875 155.109 46.8906C155.172 47.0938 155.211 47.4766 155.227 48.0391C155.242 48.5859 155.234 49.1953 155.203 49.8672C155.188 50.5234 155.164 51.1797 155.133 51.8359C155.117 52.4922 155.109 53.0312 155.109 53.4531C155.109 53.5625 155 53.6875 154.781 53.8281C154.578 53.9688 154.344 54.0859 154.078 54.1797C153.828 54.2891 153.594 54.3516 153.375 54.3672C153.156 54.3828 153.039 54.3281 153.023 54.2031V52.7266V51.9766C152.773 52.4766 152.398 52.9219 151.898 53.3125C151.398 53.7188 150.727 53.9219 149.883 53.9219ZM163.43 44.8047C163.43 45.0234 163.367 45.25 163.242 45.4844C163.133 45.7031 162.992 45.9141 162.82 46.1172C162.648 46.3203 162.453 46.5 162.234 46.6562C162.031 46.7969 161.836 46.8828 161.648 46.9141C161.773 46.4297 161.812 46.0547 161.766 45.7891C161.719 45.5234 161.641 45.3281 161.531 45.2031C161.406 45.0625 161.25 44.9844 161.062 44.9688C160.781 44.9688 160.508 45.1328 160.242 45.4609C159.992 45.7734 159.773 46.1641 159.586 46.6328C159.398 47.0859 159.25 47.5781 159.141 48.1094C159.031 48.625 158.977 49.0938 158.977 49.5156C158.961 49.8125 158.969 50.1016 159 50.3828C159.016 50.6172 159.039 50.8594 159.07 51.1094C159.117 51.3594 159.18 51.5547 159.258 51.6953C159.164 51.7734 159.008 51.8672 158.789 51.9766C158.586 52.0859 158.367 52.1562 158.133 52.1875C157.914 52.2188 157.711 52.1797 157.523 52.0703C157.352 51.9609 157.258 51.7266 157.242 51.3672C157.211 51.0234 157.188 50.6406 157.172 50.2188C157.172 49.7812 157.172 49.3516 157.172 48.9297C157.188 48.4922 157.203 48.0625 157.219 47.6406C157.234 47.2188 157.258 46.8281 157.289 46.4688C157.32 45.7812 157.336 45.25 157.336 44.875C157.336 44.5 157.328 44.1406 157.312 43.7969C157.312 43.7344 157.414 43.6484 157.617 43.5391C157.836 43.4141 158.07 43.3047 158.32 43.2109C158.586 43.1172 158.828 43.0625 159.047 43.0469C159.266 43.0312 159.375 43.0781 159.375 43.1875C159.375 43.3594 159.352 43.7031 159.305 44.2188C159.273 44.7188 159.227 45.2422 159.164 45.7891C159.273 45.4922 159.414 45.1719 159.586 44.8281C159.773 44.4844 159.984 44.1641 160.219 43.8672C160.453 43.5703 160.719 43.3281 161.016 43.1406C161.312 42.9375 161.641 42.8359 162 42.8359C162.281 42.8359 162.508 42.9219 162.68 43.0938C162.867 43.2656 163.016 43.4609 163.125 43.6797C163.234 43.8984 163.312 44.1172 163.359 44.3359C163.406 44.5547 163.43 44.7109 163.43 44.8047ZM170.648 47.9688C170.617 48.5781 170.508 49.1406 170.32 49.6562C170.148 50.1719 169.906 50.625 169.594 51.0156C169.281 51.3906 168.906 51.6875 168.469 51.9062C168.047 52.125 167.578 52.2422 167.062 52.2578C166.609 52.2734 166.18 52.1641 165.773 51.9297C165.383 51.6953 165.039 51.3672 164.742 50.9453C164.445 50.5234 164.219 50.0234 164.062 49.4453C163.922 48.8516 163.883 48.2109 163.945 47.5234C163.992 46.7266 164.141 46.0469 164.391 45.4844C164.641 44.9062 164.906 44.4297 165.188 44.0547C165.469 43.6797 165.727 43.4062 165.961 43.2344C166.211 43.0469 166.367 42.9375 166.43 42.9062C166.539 42.8594 166.641 42.8516 166.734 42.8828C166.828 42.8984 166.93 42.9219 167.039 42.9531C167.07 42.9688 167.102 43.0078 167.133 43.0703C167.195 43.1797 167.234 43.3828 167.25 43.6797C167.328 43.5078 167.43 43.3672 167.555 43.2578C167.68 43.1484 167.805 43.0703 167.93 43.0234C168.086 42.9609 168.242 42.9219 168.398 42.9062C168.508 42.8906 168.695 42.9766 168.961 43.1641C169.242 43.3516 169.508 43.6484 169.758 44.0547C170.023 44.4609 170.25 44.9922 170.438 45.6484C170.625 46.2891 170.695 47.0625 170.648 47.9688ZM169.055 47.6875C169.07 47.3125 169.055 46.9375 169.008 46.5625C168.977 46.1719 168.914 45.8203 168.82 45.5078C168.742 45.1797 168.641 44.9219 168.516 44.7344C168.391 44.5312 168.266 44.4297 168.141 44.4297C168 44.4609 167.844 44.5312 167.672 44.6406C167.531 44.7344 167.375 44.8828 167.203 45.0859C167.031 45.2891 166.867 45.5781 166.711 45.9531C166.695 45.9062 166.68 45.8203 166.664 45.6953C166.648 45.5859 166.633 45.4453 166.617 45.2734C166.617 45.0859 166.633 44.8359 166.664 44.5234C166.445 44.7891 166.273 45.1016 166.148 45.4609C166.039 45.8203 165.953 46.1641 165.891 46.4922C165.828 46.8828 165.781 47.2734 165.75 47.6641C165.734 48.0859 165.75 48.5 165.797 48.9062C165.859 49.3125 165.953 49.6719 166.078 49.9844C166.219 50.2969 166.383 50.5469 166.57 50.7344C166.758 50.9219 166.984 51.0078 167.25 50.9922C167.516 50.9766 167.75 50.8672 167.953 50.6641C168.156 50.4609 168.336 50.2031 168.492 49.8906C168.648 49.5781 168.773 49.2266 168.867 48.8359C168.961 48.4453 169.023 48.0625 169.055 47.6875ZM177.234 43.2812C177.234 43.1094 177.336 42.9844 177.539 42.9062C177.758 42.8125 177.984 42.7656 178.219 42.7656C178.469 42.7656 178.695 42.8125 178.898 42.9062C179.102 42.9844 179.195 43.0938 179.18 43.2344C179.164 43.3438 179.148 43.5625 179.133 43.8906C179.117 44.2031 179.094 44.5781 179.062 45.0156C179.047 45.4531 179.023 45.9219 178.992 46.4219C178.961 46.9219 178.93 47.4141 178.898 47.8984C178.883 48.3672 178.867 48.8047 178.852 49.2109C178.852 49.6172 178.852 49.9297 178.852 50.1484C178.852 50.4297 178.867 50.6875 178.898 50.9219C178.93 51.125 178.969 51.3281 179.016 51.5312C179.062 51.7188 179.133 51.8516 179.227 51.9297C179.102 51.9766 178.969 52.0078 178.828 52.0234C178.703 52.0391 178.586 52.0547 178.477 52.0703C178.352 52.0859 178.227 52.0938 178.102 52.0938C177.836 52.0938 177.609 52.0391 177.422 51.9297C177.25 51.8203 177.164 51.5938 177.164 51.25C177.164 51.0781 177.172 50.8281 177.188 50.5C177.219 50.1719 177.25 49.8203 177.281 49.4453C177.172 49.7734 177.039 50.1094 176.883 50.4531C176.727 50.7969 176.531 51.1016 176.297 51.3672C176.078 51.6328 175.828 51.8516 175.547 52.0234C175.266 52.1953 174.945 52.2812 174.586 52.2812C174.18 52.2812 173.805 52.1953 173.461 52.0234C173.133 51.8516 172.844 51.6094 172.594 51.2969C172.344 50.9688 172.156 50.5703 172.031 50.1016C171.906 49.6328 171.859 49.0938 171.891 48.4844C171.891 48.0156 171.898 47.5156 171.914 46.9844C171.93 46.5312 171.953 46.0078 171.984 45.4141C172.016 44.8203 172.07 44.2031 172.148 43.5625C172.164 43.5 172.273 43.4219 172.477 43.3281C172.68 43.2344 172.906 43.1562 173.156 43.0938C173.406 43.0312 173.648 43.0078 173.883 43.0234C174.117 43.0391 174.289 43.1328 174.398 43.3047C174.32 43.5859 174.242 43.9219 174.164 44.3125C174.086 44.6875 174.016 45.0781 173.953 45.4844C173.891 45.8906 173.844 46.2891 173.812 46.6797C173.781 47.0703 173.766 47.4297 173.766 47.7578C173.766 48.0547 173.781 48.3828 173.812 48.7422C173.844 49.0859 173.898 49.4141 173.977 49.7266C174.07 50.0234 174.195 50.2734 174.352 50.4766C174.523 50.6797 174.742 50.7812 175.008 50.7812C175.305 50.7812 175.562 50.6562 175.781 50.4062C176.016 50.1406 176.211 49.8047 176.367 49.3984C176.523 48.9922 176.656 48.5312 176.766 48.0156C176.875 47.4844 176.961 46.9609 177.023 46.4453C177.102 45.9297 177.148 45.4375 177.164 44.9688C177.195 44.4844 177.219 44.0781 177.234 43.75V43.2812ZM185.391 42.7188C185.828 42.7188 186.234 42.8438 186.609 43.0938C186.984 43.3438 187.305 43.6719 187.57 44.0781C187.836 44.4844 188.047 44.9531 188.203 45.4844C188.359 46 188.438 46.5391 188.438 47.1016C188.438 47.6641 188.375 48.2578 188.25 48.8828C188.125 49.5078 187.93 50.0859 187.664 50.6172C187.398 51.1484 187.055 51.5938 186.633 51.9531C186.211 52.2969 185.695 52.4688 185.086 52.4688C184.602 52.4688 184.141 52.2969 183.703 51.9531C183.281 51.5938 182.953 51.1484 182.719 50.6172C182.688 51.1641 182.617 51.7188 182.508 52.2812C182.398 52.8594 182.344 53.5469 182.344 54.3438C182.344 54.5781 182.352 54.8438 182.367 55.1406C182.383 55.4375 182.406 55.7344 182.438 56.0312C182.469 56.3281 182.516 56.6016 182.578 56.8516C182.641 57.1016 182.711 57.2969 182.789 57.4375C182.523 57.5938 182.281 57.7109 182.062 57.7891C181.859 57.8672 181.68 57.9219 181.523 57.9531C181.352 58 181.188 58.0234 181.031 58.0234C180.828 58.0234 180.695 57.9375 180.633 57.7656C180.57 57.5938 180.539 57.2891 180.539 56.8516C180.539 56.5703 180.547 56.1641 180.562 55.6328C180.594 55.1172 180.625 54.5234 180.656 53.8516C180.703 53.1797 180.742 52.4766 180.773 51.7422C180.82 50.9922 180.859 50.2578 180.891 49.5391C180.938 48.8203 180.969 48.1562 180.984 47.5469C181.016 46.9219 181.031 46.3984 181.031 45.9766C181.031 45.4609 181.023 45.0625 181.008 44.7812C180.992 44.4844 180.969 44.2656 180.938 44.125C180.922 43.9688 180.898 43.8594 180.867 43.7969C180.836 43.7344 180.797 43.6641 180.75 43.5859C180.891 43.4766 181.055 43.3828 181.242 43.3047C181.445 43.2109 181.641 43.1484 181.828 43.1172C182.031 43.0703 182.211 43.0547 182.367 43.0703C182.539 43.0859 182.672 43.125 182.766 43.1875C182.844 43.2656 182.898 43.3828 182.93 43.5391C182.977 43.6953 183.016 43.9297 183.047 44.2422C183.344 43.8359 183.68 43.4844 184.055 43.1875C184.445 42.875 184.891 42.7188 185.391 42.7188ZM184.477 51.0859C184.758 51.0859 185.023 50.9531 185.273 50.6875C185.539 50.4219 185.766 50.0859 185.953 49.6797C186.156 49.2578 186.312 48.7969 186.422 48.2969C186.547 47.7812 186.609 47.2734 186.609 46.7734C186.609 46.2266 186.555 45.7812 186.445 45.4375C186.352 45.0781 186.227 44.7969 186.07 44.5938C185.93 44.375 185.773 44.2266 185.602 44.1484C185.445 44.0547 185.305 44.0078 185.18 44.0078C184.883 44.0078 184.602 44.1328 184.336 44.3828C184.07 44.6172 183.836 44.9297 183.633 45.3203C183.43 45.6953 183.266 46.1172 183.141 46.5859C183.031 47.0547 182.977 47.5234 182.977 47.9922C182.977 48.4297 183.016 48.8359 183.094 49.2109C183.188 49.5859 183.305 49.9141 183.445 50.1953C183.586 50.4766 183.742 50.6953 183.914 50.8516C184.102 51.0078 184.289 51.0859 184.477 51.0859Z" fill="black"/>
<defs>
<filter id="filter0_d" x="0" y="18" width="338" height="148" filterUnits="userSpaceOnUse" color-interpolation-filters="sRGB">
<feFlood flood-opacity="0" result="BackgroundImageFix"/>
<feColorMatrix in="SourceAlpha" type="matrix" values="0 0 0 0 0 0 0 0 0 0 0 0 0 0 0 0 0 0 127 0"/>
<feOffset dy="4"/>
<feGaussianBlur stdDeviation="2"/>
<feColorMatrix type="matrix" values="0 0 0 0 0 0 0 0 0 0 0 0 0 0 0 0 0 0 0.25 0"/>
<feBlend mode="normal" in2="BackgroundImageFix" result="effect1_dropShadow"/>
<feBlend mode="normal" in="SourceGraphic" in2="effect1_dropShadow" result="shape"/>
</filter>
<filter id="filter1_d" x="15" y="28" width="308" height="128" filterUnits="userSpaceOnUse" color-interpolation-filters="sRGB">
<feFlood flood-opacity="0" result="BackgroundImageFix"/>
<feColorMatrix in="SourceAlpha" type="matrix" values="0 0 0 0 0 0 0 0 0 0 0 0 0 0 0 0 0 0 127 0"/>
<feOffset dy="4"/>
<feGaussianBlur stdDeviation="2"/>
<feColorMatrix type="matrix" values="0 0 0 0 0 0 0 0 0 0 0 0 0 0 0 0 0 0 0.25 0"/>
<feBlend mode="normal" in2="BackgroundImageFix" result="effect1_dropShadow"/>
<feBlend mode="normal" in="SourceGraphic" in2="effect1_dropShadow" result="shape"/>
</filter>
<filter id="filter2_d" x="72.3438" y="68.4062" width="200.516" height="52.3438" filterUnits="userSpaceOnUse" color-interpolation-filters="sRGB">
<feFlood flood-opacity="0" result="BackgroundImageFix"/>
<feColorMatrix in="SourceAlpha" type="matrix" values="0 0 0 0 0 0 0 0 0 0 0 0 0 0 0 0 0 0 127 0"/>
<feOffset dy="4"/>
<feGaussianBlur stdDeviation="2"/>
<feColorMatrix type="matrix" values="0 0 0 0 0 0 0 0 0 0 0 0 0 0 0 0 0 0 0.25 0"/>
<feBlend mode="normal" in2="BackgroundImageFix" result="effect1_dropShadow"/>
<feBlend mode="normal" in="SourceGraphic" in2="effect1_dropShadow" result="shape"/>
</filter>
</defs>
</svg>
